# xmcd
#
# Track frame offsets:
# 150
# 13575
# 30305
# 42396
# 56610
# 68744
# 83993
# 105114
# 114583
# 127812
# 143625
# 162250
# 174856
# 187856
#
# Disc length: 2724 seconds
#
#
# Revision: 0
# Processed by: cddbd v1.5.2PL0 Copyright (c) Steve Scherf et al.
# Submitted via: FreeRIP 2.931 
#
DISCID=a10aa20e
DTITLE=Dr. Hook - The Collection
DYEAR=1900
DGENRE=Country
TTITLE0=When You're In Love With A Beautiful Woman
TTITLE1=More Like The Movies
TTITLE2=Mountain Mary
TTITLE3=A Couple More Years
TTITLE4=Up On The Mountain
TTITLE5=I Don't Want To Be Alone Tonight
TTITLE6=Clyde
TTITLE7=Who Dat
TTITLE8=Let Me Be Your Lover
TTITLE9=The Radio
TTITLE10=Help Me Mama
TTITLE11=Makin' Love and Music
TTITLE12=On The Way To The Bottom
TTITLE13=What A Way To Go
EXTD=
EXTT0=
EXTT1=
EXTT2=
EXTT3=
EXTT4=
EXTT5=
EXTT6=
EXTT7=
EXTT8=
EXTT9=
EXTT10=
EXTT11=
EXTT12=
EXTT13=
PLAYORDER=
